<?xml version="1.0" standalone="no"?>
<!DOCTYPE svg PUBLIC "-//W3C//DTD SVG 20010904//EN"
 "http://www.w3.org/TR/2001/REC-SVG-20010904/DTD/svg10.dtd">
<svg version="1.0" xmlns="http://www.w3.org/2000/svg"
 width="2560.000000pt" height="2560.000000pt" viewBox="0 0 2560.000000 2560.000000"
 preserveAspectRatio="xMidYMid meet">
<metadata>
Created by potrace 1.14, written by Peter Selinger 2001-2017
</metadata>
<g transform="translate(0.000000,2560.000000) scale(0.100000,-0.100000)"
fill="#000000" stroke="none">
<path d="M1837 15424 c-1 -1 -31 -5 -67 -8 -91 -7 -159 -16 -200 -26 -19 -5
-51 -12 -70 -15 -30 -5 -146 -36 -190 -51 -8 -3 -17 -6 -20 -6 -40 -8 -310
-137 -310 -149 0 -4 -10 -11 -22 -15 -76 -23 -343 -261 -438 -389 -25 -33 -47
-62 -50 -65 -14 -14 -50 -70 -50 -79 0 -5 -4 -11 -9 -13 -12 -4 -93 -158 -139
-265 -33 -77 -92 -244 -97 -278 -1 -5 -3 -12 -4 -15 -5 -10 -15 -57 -25 -112
-2 -13 -7 -34 -10 -48 -4 -14 -8 -41 -10 -60 -3 -19 -5 -35 -6 -35 -2 0 -5
-24 -15 -120 -10 -96 -11 -477 -1 -555 4 -30 9 -73 11 -95 2 -22 5 -40 5 -40
1 0 4 -16 7 -35 2 -19 11 -64 19 -100 8 -36 17 -78 20 -94 10 -52 71 -230 110
-321 37 -88 136 -267 161 -293 7 -7 13 -17 13 -21 0 -4 9 -19 20 -32 11 -13
23 -28 27 -34 95 -123 263 -290 334 -332 16 -10 29 -21 29 -25 0 -4 5 -8 11
-8 6 0 25 -11 42 -24 101 -76 336 -179 506 -222 106 -27 107 -27 236 -49 155
-26 489 -26 695 1 153 19 387 87 519 151 42 20 79 36 84 35 4 -1 7 3 7 8 0 6
5 10 10 10 14 0 143 84 205 134 52 41 208 196 235 231 8 11 28 37 43 57 89
120 196 350 232 503 4 17 9 39 12 50 2 11 7 35 9 53 5 31 5 32 -30 32 -20 0
-146 1 -281 1 -135 0 -295 -1 -355 -1 l-110 0 -12 -27 c-6 -16 -13 -37 -15
-48 -6 -32 -69 -160 -103 -210 -47 -68 -153 -169 -222 -212 -34 -21 -64 -38
-67 -38 -3 0 -13 -5 -21 -10 -47 -30 -198 -70 -339 -90 -111 -16 -376 -3 -456
22 -11 3 -29 7 -40 9 -62 7 -252 93 -330 148 -172 122 -332 342 -400 551 -19
60 -22 68 -24 77 -1 4 -7 22 -12 40 -12 41 -28 120 -35 173 -3 22 -8 47 -10
55 -7 20 -18 197 -18 295 0 114 13 279 28 360 3 17 8 48 12 70 3 22 8 43 11
48 2 4 7 20 9 35 17 99 101 287 181 409 56 85 182 220 233 250 17 9 30 21 30
25 0 4 6 8 14 8 8 0 16 3 18 8 11 26 248 125 329 137 24 4 47 9 51 11 15 9
136 18 243 18 169 0 273 -15 381 -54 33 -12 64 -22 69 -24 30 -6 142 -75 199
-122 128 -105 213 -230 264 -389 l30 -90 391 0 c446 0 404 -10 377 93 -8 29
-14 55 -14 57 -1 11 -33 121 -41 140 -5 11 -19 47 -32 80 -46 121 -112 237
-198 350 -55 71 -171 189 -226 230 -22 17 -44 35 -50 41 -44 50 -361 218 -450
238 -5 2 -37 11 -70 21 -33 10 -64 20 -70 21 -5 1 -37 7 -70 15 -33 7 -69 14
-80 15 -11 1 -36 5 -55 8 -81 13 -165 18 -328 20 -95 1 -173 1 -175 0z"/>
<path d="M10448 14959 c-5 -3 -11 -26 -13 -50 -2 -24 -6 -62 -9 -84 -3 -22 -8
-69 -12 -105 -8 -74 -11 -103 -14 -110 -1 -3 -2 -9 -1 -14 1 -5 -3 -50 -10
-100 -6 -50 -13 -109 -15 -131 -7 -76 -16 -140 -20 -144 -2 -3 -109 -4 -238
-4 l-233 1 1 -301 1 -300 236 1 235 0 2 -656 c2 -660 3 -724 22 -830 5 -31 12
-68 14 -82 7 -37 46 -149 69 -195 107 -215 323 -349 647 -402 57 -9 406 -19
445 -13 6 1 26 1 45 1 85 -3 174 -1 191 4 18 6 19 22 19 306 l0 299 -202 1
c-267 2 -335 7 -365 32 -7 5 -13 7 -13 3 0 -14 -66 33 -94 67 -58 72 -61 116
-61 827 l0 635 367 1 c201 1 370 4 375 7 5 3 9 137 8 299 l0 293 -365 2 c-201
1 -370 2 -375 2 -7 1 -10 128 -10 367 0 229 -3 368 -10 372 -13 8 -604 9 -617
1z"/>
<path d="M5397 14284 c-1 -1 -38 -5 -82 -9 -233 -20 -474 -104 -669 -232 -76
-51 -250 -219 -261 -253 -3 -11 -10 -20 -14 -20 -15 0 -110 -204 -131 -280
-21 -79 -34 -157 -31 -186 1 -7 108 -10 346 -10 375 0 349 -3 361 49 1 4 3 9
4 12 1 3 3 8 4 13 8 33 55 112 88 148 68 74 214 155 306 169 17 3 45 7 60 10
77 13 221 5 297 -17 22 -6 42 -12 45 -13 51 -11 178 -97 222 -150 74 -88 113
-229 109 -392 l-1 -41 -397 -1 c-219 0 -429 -2 -468 -5 -96 -7 -174 -16 -210
-22 -16 -3 -39 -7 -50 -9 -87 -13 -240 -62 -320 -103 -27 -14 -53 -25 -57 -24
-5 1 -8 -3 -8 -8 0 -6 -5 -10 -10 -10 -28 0 -168 -122 -231 -200 -155 -194
-207 -507 -124 -740 1 -3 6 -20 10 -37 4 -18 11 -33 15 -33 4 0 11 -12 15 -27
9 -36 83 -148 131 -199 88 -92 218 -176 340 -218 68 -24 184 -53 214 -54 8 0
44 -4 80 -8 110 -14 363 -8 455 11 96 19 224 70 304 121 128 82 214 166 307
299 25 36 47 65 49 65 2 0 3 -8 3 -17 -1 -10 2 -36 6 -58 4 -22 9 -56 12 -75
5 -48 12 -101 17 -125 9 -42 21 -131 18 -142 -1 -7 3 -13 9 -13 6 0 9 -3 7 -7
-3 -5 16 -7 41 -6 26 2 74 3 107 2 33 0 67 0 75 1 16 0 35 0 123 -3 33 -1 61
1 63 5 2 3 17 3 33 -2 16 -4 32 -6 35 -2 3 3 33 4 66 3 l61 -2 -1 923 c-1 536
-5 944 -11 973 -5 28 -14 75 -20 105 -45 239 -180 454 -373 597 -112 83 -314
177 -422 197 -16 2 -40 7 -54 11 -108 24 -228 37 -378 39 -62 1 -114 1 -115 0z
m624 -1653 c15 -1 15 -7 -1 -73 -30 -124 -50 -180 -91 -256 -109 -205 -245
-315 -432 -351 -149 -29 -348 -13 -404 32 -7 5 -13 6 -13 3 0 -4 -19 6 -42 23
-102 70 -142 145 -142 262 1 72 27 169 47 169 4 0 7 5 7 10 0 19 117 123 140
125 3 1 28 9 56 18 66 23 84 26 174 33 41 4 76 7 77 8 1 1 597 -2 624 -3z"/>
<path d="M8307 14284 c-1 -1 -36 -4 -78 -8 -105 -8 -224 -32 -317 -63 -85 -28
-252 -110 -252 -123 0 -5 -9 -12 -21 -15 -22 -7 -173 -154 -204 -200 -102
-149 -145 -296 -140 -479 3 -126 7 -146 40 -228 58 -143 188 -270 360 -353 50
-24 97 -45 105 -47 8 -2 17 -5 20 -8 15 -15 206 -73 410 -124 8 -2 33 -9 55
-15 22 -5 56 -13 75 -16 19 -3 68 -15 110 -26 41 -12 82 -22 90 -24 43 -10
157 -48 168 -57 6 -6 12 -8 12 -4 0 3 21 -5 48 -18 98 -50 145 -130 141 -241
-3 -95 -56 -180 -149 -241 -37 -24 -134 -56 -185 -60 -59 -5 -210 -5 -235 0
-14 3 -38 8 -55 12 -177 35 -330 167 -381 330 -9 29 -20 51 -25 48 -9 -5 -50
-6 -217 -4 -52 1 -96 0 -99 -3 -2 -3 -17 -2 -31 2 -15 4 -39 4 -54 0 -16 -4
-30 -3 -34 2 -3 5 -10 7 -15 3 -13 -8 -185 -7 -199 1 -5 3 -10 2 -10 -3 0 -5
-12 -7 -26 -4 -28 5 -27 10 -9 -93 17 -91 115 -325 136 -325 5 0 9 -5 9 -11 0
-32 219 -259 249 -259 5 0 11 -4 13 -9 4 -12 120 -81 193 -115 88 -41 227 -85
320 -101 218 -37 507 -41 660 -9 11 3 38 7 60 10 53 8 185 48 224 68 17 9 33
16 36 16 9 0 128 62 169 89 77 51 211 179 222 214 3 9 10 17 15 17 5 0 9 6 9
14 0 8 4 16 8 18 20 7 90 181 108 263 10 50 12 261 3 312 -5 26 -12 61 -15 78
-6 37 -54 156 -68 171 -6 7 -26 32 -45 55 -19 24 -54 60 -78 79 -24 19 -50 41
-57 48 -38 33 -196 104 -326 147 -80 26 -154 49 -164 51 -10 2 -33 8 -51 14
-18 6 -41 13 -51 15 -10 3 -91 23 -179 44 -349 86 -497 142 -572 217 -13 13
-21 24 -18 24 3 0 -2 11 -11 25 -22 33 -21 108 1 163 31 77 129 143 254 171
43 9 260 8 306 -3 122 -27 215 -89 262 -176 18 -32 35 -81 37 -105 1 -6 123
-10 343 -11 l341 -1 -4 21 c-2 11 -7 37 -10 56 -3 19 -15 64 -26 100 -97 303
-321 522 -633 620 -69 21 -85 25 -135 35 -14 3 -34 7 -46 9 -61 12 -377 29
-387 20z"/>
<path d="M13477 14284 c-1 -1 -27 -5 -57 -9 -103 -12 -135 -17 -200 -32 -36
-8 -72 -16 -80 -18 -8 -2 -31 -10 -50 -18 -19 -8 -38 -16 -42 -16 -36 -5 -245
-109 -290 -145 -14 -11 -45 -34 -68 -51 -62 -45 -169 -161 -222 -240 -81 -123
-137 -282 -152 -431 l-4 -31 349 1 349 0 11 40 c59 224 286 366 581 366 273 1
485 -148 539 -378 6 -26 13 -90 15 -143 l4 -97 -347 0 c-532 -1 -633 -6 -803
-43 -47 -10 -96 -21 -110 -24 -24 -5 -39 -11 -142 -52 -24 -9 -54 -25 -68 -34
-14 -9 -29 -18 -35 -19 -45 -10 -195 -140 -259 -224 -34 -44 -87 -138 -86
-151 0 -3 -6 -18 -15 -34 -53 -103 -65 -360 -23 -506 15 -50 13 -46 22 -70 46
-117 98 -199 182 -281 61 -60 190 -152 206 -146 4 1 8 -2 8 -8 0 -5 9 -10 19
-10 11 0 22 -4 25 -9 6 -9 148 -56 201 -66 139 -27 388 -40 495 -25 30 5 75
11 100 14 189 27 416 160 546 319 21 27 44 54 49 60 6 7 24 34 42 61 l31 49 6
-34 c3 -19 8 -47 11 -64 3 -16 8 -50 11 -75 5 -43 9 -72 18 -115 7 -38 19
-140 18 -147 -2 -7 61 -13 83 -8 11 3 72 2 163 -2 35 -2 66 0 68 4 2 3 17 3
33 -2 16 -4 32 -6 35 -2 4 3 34 4 69 3 105 -5 150 -2 157 9 7 12 5 1855 -2
1885 -3 11 -9 43 -13 70 -5 28 -9 52 -10 55 -1 3 -5 19 -9 35 -33 125 -97 260
-166 349 -32 42 -167 174 -200 196 -19 13 -37 27 -40 30 -3 3 -14 10 -25 16
-11 6 -46 25 -77 43 -32 17 -58 28 -58 24 0 -4 -4 -3 -8 3 -7 12 -158 66 -222
80 -19 4 -42 9 -50 11 -15 4 -20 5 -95 16 -89 15 -156 19 -283 21 -74 1 -134
0 -135 0z m663 -1664 c0 -13 -7 -44 -25 -120 -52 -213 -209 -429 -366 -502
-105 -49 -166 -61 -309 -61 -113 -1 -185 15 -263 56 -122 64 -171 143 -171
277 -1 105 20 156 93 230 42 42 110 84 156 97 6 1 28 7 50 13 22 5 74 13 115
16 41 4 76 7 77 8 1 0 146 1 322 1 279 0 321 -2 321 -15z"/>
<path d="M20827 14284 c-1 -1 -33 -5 -72 -8 -38 -3 -82 -8 -97 -11 -16 -3 -38
-7 -50 -9 -291 -54 -567 -204 -738 -402 -95 -110 -181 -283 -204 -406 -2 -15
-7 -32 -10 -36 -3 -5 -7 -34 -10 -64 l-4 -54 348 0 348 -1 12 41 c15 51 49
125 70 150 75 96 241 192 348 201 23 3 47 7 53 10 15 10 179 6 239 -5 63 -12
161 -49 172 -64 4 -6 8 -7 8 -3 0 5 15 -2 33 -14 142 -100 207 -233 210 -429
l2 -95 -170 -3 c-93 -1 -177 -2 -185 -2 -8 -1 -98 0 -200 1 -170 1 -427 -8
-440 -16 -3 -2 -33 -6 -67 -10 -80 -8 -251 -55 -325 -88 -31 -14 -59 -23 -62
-19 -3 3 -6 1 -6 -5 0 -6 -12 -16 -27 -22 -74 -29 -211 -145 -280 -236 -31
-42 -90 -143 -94 -160 -1 -5 -6 -21 -11 -35 -26 -66 -45 -198 -42 -299 6 -269
131 -501 346 -642 121 -80 233 -124 393 -154 100 -19 393 -26 485 -12 162 25
273 66 395 145 91 60 240 210 289 290 21 35 39 62 41 60 2 -2 6 -21 9 -43 4
-22 11 -67 17 -100 5 -33 12 -78 14 -100 3 -22 9 -63 14 -90 5 -27 7 -53 5
-57 -2 -3 0 -9 5 -13 6 -3 8 -12 5 -20 -4 -9 1 -14 13 -14 10 0 95 0 188 0 94
0 179 0 190 -1 27 -2 27 -2 130 0 l90 1 -1 917 c-1 832 -4 961 -20 1042 -3 14
-7 39 -10 55 -30 165 -149 383 -271 495 -85 78 -184 153 -203 155 -3 0 -12 5
-20 10 -18 12 -109 55 -113 53 -1 0 -21 9 -44 21 -24 12 -43 19 -43 17 0 -3
-19 1 -41 10 -23 8 -51 16 -63 19 -12 2 -32 7 -46 10 -112 25 -221 36 -388 39
-62 1 -114 1 -115 0z m631 -1653 c9 -1 11 -10 8 -31 -3 -16 -9 -44 -12 -62
-16 -88 -77 -226 -145 -328 -90 -135 -228 -235 -354 -256 -16 -3 -46 -9 -65
-13 -79 -16 -250 -3 -330 26 -152 56 -223 151 -226 302 -2 75 1 89 28 143 31
59 132 163 150 152 4 -3 8 0 8 5 0 6 8 11 18 11 10 0 23 5 30 12 7 7 12 8 12
4 0 -5 7 -3 15 4 8 7 15 10 15 6 0 -3 12 -1 27 5 14 5 65 12 112 16 47 3 87 6
88 7 1 1 599 -2 621 -3z"/>
<path d="M15157 14213 c-3 -2 2 -23 10 -46 8 -23 16 -49 18 -57 3 -13 81 -284
105 -363 5 -15 10 -31 11 -35 1 -4 3 -11 5 -17 5 -13 55 -185 61 -210 3 -11
17 -58 30 -105 14 -47 29 -98 33 -115 4 -16 47 -160 94 -320 48 -159 88 -297
89 -305 2 -8 13 -46 25 -85 32 -105 132 -448 136 -465 2 -8 6 -22 9 -30 3 -8
8 -24 10 -35 3 -11 29 -99 57 -195 79 -268 101 -344 104 -358 4 -21 20 -31 51
-32 17 0 53 0 80 0 28 0 80 -1 118 -3 37 -1 67 0 67 3 0 6 98 3 116 -4 7 -3
16 -1 19 3 3 5 20 6 37 2 18 -4 47 -5 63 -3 17 1 39 4 50 6 11 1 32 -1 46 -5
15 -4 32 -3 39 1 7 4 25 4 40 0 27 -8 29 -6 41 38 8 26 14 50 15 55 1 4 2 8 4
10 1 1 3 9 5 18 1 8 19 71 39 140 20 68 38 134 40 146 3 12 10 31 16 42 6 12
8 21 5 21 -3 0 1 16 9 35 8 19 13 35 11 35 -3 0 0 12 6 28 6 15 12 34 14 42 2
8 15 56 29 105 15 50 28 97 30 105 2 8 16 56 30 105 26 88 33 115 41 145 2 8
4 15 5 15 1 0 3 7 5 15 4 25 46 174 52 190 3 8 7 20 9 25 1 6 19 66 39 135 19
69 37 132 39 140 2 8 16 57 31 109 15 51 28 98 30 105 1 6 5 18 8 26 3 8 9 29
13 45 4 17 8 32 9 35 1 5 29 102 42 145 5 15 9 10 20 -25 7 -25 15 -52 17 -60
2 -8 10 -35 17 -60 7 -25 14 -49 15 -55 2 -5 10 -35 19 -65 17 -60 44 -156 50
-180 4 -15 12 -41 90 -310 20 -69 43 -150 51 -180 8 -30 44 -156 80 -280 36
-124 67 -232 69 -240 2 -8 16 -55 30 -105 15 -49 29 -100 31 -112 2 -12 9 -35
15 -50 6 -16 12 -36 14 -45 2 -9 18 -65 36 -125 17 -59 34 -120 36 -135 5 -27
8 -28 62 -29 31 0 83 0 116 1 33 1 67 1 75 1 12 0 246 0 330 0 8 0 48 0 89 -1
41 0 77 3 81 7 4 4 12 26 18 48 6 22 31 108 55 190 25 83 70 236 101 341 30
105 60 202 65 215 5 13 9 27 10 32 0 4 1 8 2 10 0 1 2 9 4 17 2 8 18 62 35
120 17 58 32 113 33 122 1 10 4 18 7 18 4 0 7 6 7 13 0 12 81 289 130 447 15
47 28 92 29 100 4 17 142 487 176 595 12 39 23 75 24 80 1 6 14 51 29 100 15
50 30 104 35 121 4 18 10 36 13 41 3 5 8 20 11 34 7 34 14 60 24 95 l10 31
-356 -1 -356 -1 -12 -47 c-6 -27 -10 -48 -7 -48 3 0 0 -6 -6 -13 -6 -8 -8 -17
-5 -20 3 -3 2 -12 -2 -19 -5 -7 -10 -22 -11 -32 -2 -11 -11 -47 -19 -80 -9
-34 -18 -69 -20 -79 -2 -10 -5 -26 -8 -35 -3 -9 -7 -28 -10 -42 -3 -14 -30
-125 -61 -248 -30 -123 -57 -233 -59 -245 -2 -12 -14 -58 -25 -103 -12 -45
-23 -90 -25 -100 -3 -10 -16 -68 -31 -129 -15 -60 -28 -117 -30 -125 -2 -8
-22 -89 -45 -180 -22 -91 -43 -174 -46 -185 -35 -155 -63 -257 -67 -245 -8 21
-48 159 -52 179 -2 9 -8 28 -13 42 -6 14 -13 43 -16 63 -4 21 -9 43 -13 50 -4
6 -8 16 -9 21 -1 6 -32 118 -69 250 -37 132 -69 247 -70 255 -2 8 -4 16 -5 18
-3 2 -4 7 -14 47 -4 17 -11 41 -16 55 -5 14 -27 95 -50 180 -23 85 -44 162
-47 170 -4 8 -7 20 -9 25 -4 17 -59 214 -93 335 -12 41 -23 82 -25 91 -8 30
-28 104 -34 119 -3 8 -7 24 -9 35 -2 11 -5 25 -7 31 -3 8 -123 11 -402 10
l-397 -1 -17 -52 c-9 -29 -16 -53 -15 -53 2 0 -4 -21 -12 -47 -17 -55 -62
-211 -67 -233 -5 -21 -28 -101 -71 -255 -52 -183 -75 -267 -80 -290 -3 -11
-16 -56 -29 -100 -14 -44 -28 -96 -31 -115 -4 -19 -10 -39 -13 -45 -4 -5 -8
-18 -9 -28 -2 -10 -22 -82 -44 -160 -23 -78 -42 -146 -44 -152 -1 -5 -7 -30
-14 -55 -7 -25 -15 -52 -17 -60 -1 -8 -12 -46 -24 -85 -23 -78 -22 -72 -49
-173 -11 -41 -22 -76 -25 -79 -2 -3 -8 12 -12 33 -10 50 -11 53 -14 59 -3 6
-2 4 -15 60 -5 22 -9 42 -10 45 -4 13 -16 76 -17 85 0 6 -4 17 -9 26 -4 9 -10
27 -13 40 -3 13 -8 35 -11 49 -3 14 -9 39 -12 55 -7 38 -9 46 -15 65 -5 14
-21 79 -33 138 -7 32 -10 46 -40 162 -14 58 -28 114 -30 125 -3 11 -9 41 -15
66 -6 26 -12 53 -13 60 -2 8 -5 19 -8 24 -4 6 -9 26 -13 45 -9 52 -12 64 -45
195 -16 66 -32 131 -34 145 -3 14 -8 32 -11 40 -3 8 -8 26 -10 40 -6 30 -68
292 -88 370 l-14 55 -352 1 c-193 1 -353 -1 -355 -3z"/>
<path d="M22430 14209 c0 -5 11 -32 24 -61 13 -29 45 -105 71 -168 26 -63 52
-126 58 -140 6 -14 11 -27 12 -30 3 -8 35 -83 45 -105 5 -11 21 -49 36 -85 15
-36 34 -81 42 -100 9 -19 16 -37 17 -40 1 -7 82 -202 112 -268 12 -29 23 -56
23 -61 0 -4 6 -21 14 -37 8 -16 44 -101 81 -189 68 -165 70 -170 102 -245 11
-25 35 -83 54 -130 18 -47 36 -87 39 -90 3 -3 6 -9 7 -15 2 -9 268 -653 298
-720 7 -16 20 -46 28 -66 l14 -35 82 1 c44 0 81 -2 81 -6 0 -3 -18 -46 -41
-95 -44 -96 -59 -131 -80 -181 -8 -18 -17 -33 -20 -33 -3 0 -6 -6 -6 -12 0 -7
-19 -53 -43 -103 -37 -79 -88 -192 -152 -335 -11 -25 -33 -72 -48 -105 -44
-93 -96 -207 -142 -313 -24 -53 -57 -126 -75 -162 -17 -36 -30 -66 -28 -68 2
-2 575 -4 728 -2 20 0 37 4 37 9 0 5 13 38 29 73 16 35 63 142 106 238 42 96
85 193 95 215 10 22 46 105 80 185 34 80 66 152 71 160 5 8 12 22 15 30 3 8
15 34 25 57 10 23 20 48 21 55 2 7 5 15 8 18 3 3 27 57 54 120 43 99 94 216
126 285 5 11 44 99 86 195 42 96 84 193 94 215 10 22 59 135 110 250 50 116
100 228 110 250 44 98 72 159 96 218 14 34 39 90 55 125 16 35 29 65 29 67 0
2 18 43 40 90 22 47 40 88 40 90 0 3 97 225 144 330 8 17 24 53 36 80 12 28
33 74 46 103 13 29 35 79 49 112 14 33 36 83 49 112 13 29 38 87 56 128 18 41
43 98 56 126 13 28 24 55 24 61 0 13 -728 14 -752 1 -10 -5 -18 -15 -18 -23 0
-7 -7 -26 -15 -42 -8 -15 -31 -68 -51 -118 -20 -49 -42 -103 -49 -120 -12 -30
-57 -138 -77 -185 -23 -56 -36 -86 -46 -110 -6 -14 -32 -74 -56 -135 -25 -60
-56 -135 -70 -166 -14 -31 -22 -60 -19 -63 4 -3 1 -6 -5 -6 -7 0 -12 -7 -12
-15 0 -8 -4 -23 -9 -33 -11 -18 -96 -222 -131 -312 -12 -30 -26 -60 -31 -66
-5 -6 -10 -19 -12 -30 -2 -10 -11 -37 -21 -59 -10 -22 -38 -89 -63 -150 -25
-60 -53 -128 -62 -150 -10 -22 -28 -66 -41 -99 -27 -68 -24 -72 -85 84 -20 52
-43 109 -50 125 -7 17 -32 80 -55 140 -24 61 -51 129 -61 152 -11 23 -19 45
-19 48 0 4 -7 21 -15 38 -7 18 -32 79 -55 137 -22 58 -45 115 -50 128 -20 45
-32 76 -222 553 l-193 486 -387 0 c-214 0 -388 -4 -388 -8z"/>
</g>
</svg>
